<svg height="512pt" viewBox="0 0 512 512" width="512pt" xmlns="http://www.w3.org/2000/svg" xmlns:xlink="http://www.w3.org/1999/xlink"><linearGradient id="a" gradientUnits="userSpaceOnUse" x1="-.00126797292" x2="511.9976432859" y1="256.0001716559" y2="256.0001716559"><stop offset="0" stop-color="#00f2fe"/><stop offset=".0208" stop-color="#03effe"/><stop offset=".2931" stop-color="#24d2fe"/><stop offset=".5538" stop-color="#3cbdfe"/><stop offset=".7956" stop-color="#4ab0fe"/><stop offset="1" stop-color="#4facfe"/></linearGradient><path d="m237.988281 320.011719c0 11.046875-8.953125 20-20 20s-20-8.953125-20-20 8.953125-20 20-20 20 8.953125 20 20zm48-20c-11.046875 0-20 8.953125-20 20s8.953125 20 20 20 20.003907-8.953125 20.003907-20-8.957032-20-20.003907-20zm68.003907 0c-11.046876 0-20 8.953125-20 20s8.953124 20 20 20c11.046874 0 20-8.953125 20-20s-8.953126-20-20-20zm-116.003907-51.003907c0-11.046874-8.953125-20-20-20s-20 8.953126-20 20c0 11.046876 8.953125 20.003907 20 20.003907s20-8.957031 20-20.003907zm68.003907 0c0-11.046874-8.957032-20-20.003907-20s-20 8.953126-20 20c0 11.046876 8.953125 20.003907 20 20.003907s20.003907-8.957031 20.003907-20.003907zm68 0c0-11.046874-8.953126-20-20-20-11.046876 0-20 8.953126-20 20 0 11.046876 8.953124 20.003907 20 20.003907 11.046874 0 20-8.957031 20-20.003907zm48.003906 51.003907c-11.046875 0-20.003906 8.953125-20.003906 20s8.957031 20 20.003906 20 20-8.953125 20-20-8.957032-20-20-20zm20-51.003907c0-11.046874-8.953125-20-20-20s-20.003906 8.953126-20.003906 20c0 11.046876 8.957031 20.003907 20.003906 20.003907s20-8.957031 20-20.003907zm30 36.003907v-67.011719c0-11.023438-8.972656-20-19.996094-20l-284.015625-.054688v167.066407h324.011719c11.046875 0 20 8.957031 20 20.003906v46.980469c0 21.375-8.324219 41.46875-23.4375 56.578125-15.109375 15.109375-35.199219 23.425781-56.5625 23.425781-.007813 0-.015625 0-.023438 0l-351.996094-.105469c-44.097656-.015625-79.976562-35.90625-79.976562-80.003906v-213.964844c0-16.027343 6.242188-31.097656 17.578125-42.429687 11.332031-11.332032 26.398437-17.570313 42.425781-17.570313h.011719l176.972656.03125v-37.953125h-50c-11.046875 0-20.003906-8.953125-20.003906-20v-80.003906c0-11.046875 8.957031-20 20.003906-20h266.007813c11.046875 0 20 8.953125 20 20v80.003906c0 11.046875-8.953125 20-20 20h-50v37.984375l49.011718.007813c33.078126.007812 59.992188 26.925781 59.992188 60.003906v67.011719c0 11.046875-8.957031 20-20 20-11.046875 0-20.003906-8.953125-20.003906-20zm-265.007813-205.007813h226.007813v-40.003906h-226.007813zm70 77.960938 86.003907.015625v-37.976563h-86.003907zm195.007813 274.03125v-26.980469h-431.996094v26.875c0 22.050781 17.9375 39.992187 39.988281 40l351.992188.109375h.015625c10.683594 0 20.726562-4.160156 28.277344-11.714844 7.5625-7.554687 11.722656-17.601562 11.722656-28.289062zm-344.011719-66.984375v-87h-87.984375v87zm0-167.074219-67.976563-.011719c-.003906 0-.003906 0-.003906 0-5.34375 0-10.367187 2.078125-14.144531 5.855469s-5.859375 8.800781-5.859375 14.144531v20.082031h87.984375zm128.003906 221.078125c-11.046875 0-20 8.953125-20 20s8.953125 20 20 20 20-8.953125 20-20-8.953125-20-20-20zm0 0" fill="url(#a)"/></svg>